<?xml version="1.0" encoding="UTF-8"?><svg xmlns="http://www.w3.org/2000/svg" width="565.93" height="588.57" viewBox="0 0 565.93 588.57"><g id="a"><polygon points="11.32 278.44 11.32 312.39 38.48 325.98 104.13 359.93 119.98 391.62 158.46 409.73 169.78 464.06 194.68 484.44 194.68 504.81 194.68 554.61 249.01 588.57 518.39 565.93 518.39 511.6 498.02 482.17 518.39 402.94 507.07 366.72 527.45 338.43 518.39 303.97 538.77 258.06 565.93 176.57 500.28 282.97 477.65 303.97 468.59 267.12 500.28 233.16 495.76 208.26 473.12 165.25 452.75 129.03 253.54 74.7 233.16 52.07 199.21 52.07 181.1 0 47.54 56.59 47.54 144.88 11.32 153.93 0 181.1 27.16 251.27 11.32 278.44" style="fill:#6dbe45;"/></g><g id="b"><path d="M362.47,370.06l-25.99,11.41c-1.41-18.25-6.53-36.58-12.89-50.78-2.02-4.18-4.16-8.26-6.4-12.23l9.08-5.58,17.99,17.4,109.74-41.1-12.59-55.46-88.15,73.92-12.59-31.01-29.26,32.22c-1.01-1.58-2.03-3.14-3.08-4.67-.17-.27-.35-.53-.54-.79-9.19-12.89-20.65-25.16-33.41-34.1l22.41-32.41,15.56,17.59,76.77-59.18-30.39-57.58-46.38,86.37-24.49-23.99-21.66,64.05c-12.72-7.11-26.46-10.62-40.39-8.08-14.48,2.63-25.51,11.13-33.06,18.97-1.24,1.29-2.39,2.56-3.43,3.78-19.24,21.5-38.47,43.03-57.7,64.52l-26.95-8.83h0s-37.43,20.95-37.43,20.95v113.88l96.45,27.39,40.78-19.23h.01s0-14.81,0-14.81l85.73-7.26c3.92-.67,8.58-1.79,13.4-3.77.02,0,.03-.02.05-.02,4.33-1.79,8.77-4.25,12.95-7.7,5.01-4.15,8.96-9.14,11.98-14.74,4.04-8.05,6.72-17.7,7.88-28.31,0-.05.02-.11.02-.15.09-1.02.14-2.06.2-3.09h14.6v17.73l89.57,36.66,13.16-69.84-84.84,19.4-6.69-31.55Z" style="fill:#fff; stroke:#fff; stroke-width:12px;"/></g><g id="c"><path d="M176.14,465.09l28.32-2.41v14.81l-95.02-25.45-4.8-117.55,26.96,8.83c-2.72,3.04-5.45,6.07-8.15,9.11,0,0-39.02,68.73,52.69,112.65Z" style="fill:#3953a5;"/><polygon points="67.22 469.33 109.45 452.05 104.65 334.49 67.22 355.45 67.22 469.33" style="fill:#1d1753;"/><polygon points="163.67 496.71 67.22 469.33 109.45 452.05 204.45 477.48 163.67 496.71" style="fill:#26256a;"/><path d="M262.28,397.58c-11.45.82-23.75-5.25-34.31-23.03-15.11-25.43-2.44-51.83,18.23-51.83,3.18,0,6.01.5,8.59,1.47,9.36,3.49,15.51,13.1,22.84,27.34,5.67,11.03,3.39,44.7-15.36,46.05Z" style="fill:none; stroke:#fff; stroke-miterlimit:10;"/><path d="M299.59,345.18c-4.54-9.41-9.67-18.32-15.26-26.51,6.28,8.88,11.47,18.02,15.26,26.51Z" style="fill:none; stroke:#fff; stroke-miterlimit:10;"/><path d="M312.46,415.39c-.91,10.24-3.37,19.95-7.88,28.31,4.04-8.05,6.72-17.7,7.88-28.31Z" style="fill:none;"/><path d="M323.58,330.68c-4.54-9.41-9.67-18.32-15.26-26.51-.17-.27-.35-.53-.54-.79-19.94-27.94-50.48-53.07-81.98-47.34-14.48,2.63-25.51,11.13-33.06,18.97-10.41,13.13-18.15,32.84-19.52,55.05-.54,8.84-.09,18.05,1.62,27.41,1.71,9.53,4.72,19.2,9.26,28.74,5.7,11.98,12.6,22.5,20.36,31.45,6.63,7.65,13.89,14.16,21.59,19.5,23.65,16.41,51.42,21.68,77.55,14.46.02,0,.03-.02.05-.02,4.33-1.79,8.77-4.25,12.95-7.7,5.01-4.15,8.96-9.14,11.98-14.74,4.04-8.05,6.72-17.7,7.88-28.31,0-.05.02-.11.02-.15,2.1-23.96-4.27-50.8-12.89-70.06ZM262.28,397.58c-11.45.82-23.75-5.25-34.31-23.03-15.11-25.43-5.74-19.42,14.92-19.42,3.18,0-13.83-1.08-11.25-.11,9.36,3.49,11.87-5.98,19.2,8.26,5.67,11.03,30.17,32.95,11.43,34.3Z" style="fill:#acbce1;"/><path d="M312.48,415.24c2.1-23.96-4.27-50.8-12.89-70.06,11.3,23.37,15.2,48.62,12.89,70.06Z" style="fill:none;"/><path d="M169.3,332.15s42.2-21.37,77.26-7.45c0,0,30.11,40.55,23.48,68.17,0,0-14.11,31.67-47.69,46.29,0,0-53.07-35.52-53.04-107.01Z" style="fill:#5069b1;"/><path d="M271.88,349.45c8.48,21.97,3.02,50.75-15.72,52.1-11.45.82-23.77-7.85-34.33-25.62-15.11-25.43-7.13-54.57,13.53-54.57,4.34.7,11.56,2.45,19.03,7.39,10.65,7.04,15.59,16.47,17.49,20.71Z" style="fill:#dbe8f6;"/><path d="M303.6,451.65c-4.83,1.98-9.49,3.1-13.4,3.77l-85.73,7.26-28.32,2.41c-91.71-43.92-52.69-112.65-52.69-112.65,2.71-3.04,5.43-6.07,8.15-9.11,19.23-21.5,38.46-43.03,57.7-64.52,1.04-1.23,2.19-2.5,3.43-3.78-10.41,13.13-18.15,32.84-19.52,55.05-.54,8.84-.09,18.05,1.62,27.41,1.71,9.53,4.72,19.2,9.26,28.74,5.7,11.98,12.6,22.5,20.36,31.45,6.63,7.65,13.89,14.16,21.59,19.5,23.65,16.41,51.42,21.68,77.55,14.46Z" style="fill:#343694;"/><polygon points="254.94 297.38 287.85 200.09 312.34 224.08 358.72 137.71 389.11 195.29 312.34 254.47 296.78 236.88 254.94 297.38" style="fill:#f04e23;"/><polygon points="284.32 338.65 340.66 276.63 353.25 307.64 441.41 233.72 454 289.18 344.26 330.28 326.26 312.88 284.32 338.65" style="fill:#f04e23;"/><polygon points="299.59 397.65 362.47 370.06 369.16 401.6 454 382.21 440.84 452.05 351.27 415.39 351.27 397.65 299.59 397.65" style="fill:#f04e23;"/></g></svg>